REM DIRINDEX 1\2,1\3
REM DIRNAME cjc039,folder01,folder02
TITLE ""
FILE "0521-0560.mp3" MP3
  TRACK 01 AUDIO
    TITLE "0:"
    INDEX 01 00:00:00
  TRACK 02 AUDIO
    TITLE "2:cjc039_0521"
    INDEX 01 00:00:25
  TRACK 03 AUDIO
    TITLE "0:"
    INDEX 01 00:01:54
  TRACK 04 AUDIO
    TITLE "2:cjc039_0522"
    INDEX 01 00:02:28
  TRACK 05 AUDIO
    TITLE "0:"
    INDEX 01 00:03:66
  TRACK 06 AUDIO
    TITLE "2:cjc039_0523"
    INDEX 01 00:04:44
  TRACK 07 AUDIO
    TITLE "0:"
    INDEX 01 00:05:57
  TRACK 08 AUDIO
    TITLE "2:cjc039_0524"
    INDEX 01 00:06:39
  TRACK 09 AUDIO
    TITLE "0:"
    INDEX 01 00:07:72
  TRACK 10 AUDIO
    TITLE "2:cjc039_0525"
    INDEX 01 00:08:48
  TRACK 11 AUDIO
    TITLE "0:"
    INDEX 01 00:09:63
  TRACK 12 AUDIO
    TITLE "2:cjc039_0526"
    INDEX 01 00:10:39
  TRACK 13 AUDIO
    TITLE "0:"
    INDEX 01 00:12:09
  TRACK 14 AUDIO
    TITLE "2:cjc039_0527"
    INDEX 01 00:12:60
  TRACK 15 AUDIO
    TITLE "0:"
    INDEX 01 00:14:04
  TRACK 16 AUDIO
    TITLE "2:cjc039_0528"
    INDEX 01 00:14:56
  TRACK 17 AUDIO
    TITLE "0:"
    INDEX 01 00:15:66
  TRACK 18 AUDIO
    TITLE "2:cjc039_0529"
    INDEX 01 00:16:48
  TRACK 19 AUDIO
    TITLE "0:"
    INDEX 01 00:17:57
  TRACK 20 AUDIO
    TITLE "2:cjc039_0530"
    INDEX 01 00:18:35
  TRACK 21 AUDIO
    TITLE "0:"
    INDEX 01 00:20:00
  TRACK 22 AUDIO
    TITLE "2:cjc039_0531"
    INDEX 01 00:20:49
  TRACK 23 AUDIO
    TITLE "0:"
    INDEX 01 00:22:15
  TRACK 24 AUDIO
    TITLE "2:cjc039_0532"
    INDEX 01 00:22:68
  TRACK 25 AUDIO
    TITLE "0:"
    INDEX 01 00:24:10
  TRACK 26 AUDIO
    TITLE "2:cjc039_0533"
    INDEX 01 00:24:63
  TRACK 27 AUDIO
    TITLE "0:"
    INDEX 01 00:26:09
  TRACK 28 AUDIO
    TITLE "2:cjc039_0534"
    INDEX 01 00:26:62
  TRACK 29 AUDIO
    TITLE "0:"
    INDEX 01 00:28:04
  TRACK 30 AUDIO
    TITLE "2:cjc039_0535"
    INDEX 01 00:28:59
  TRACK 31 AUDIO
    TITLE "0:"
    INDEX 01 00:30:30
  TRACK 32 AUDIO
    TITLE "2:cjc039_0536"
    INDEX 01 00:31:08
  TRACK 33 AUDIO
    TITLE "0:"
    INDEX 01 00:32:39
  TRACK 34 AUDIO
    TITLE "2:cjc039_0537"
    INDEX 01 00:33:17
  TRACK 35 AUDIO
    TITLE "0:"
    INDEX 01 00:34:45
  TRACK 36 AUDIO
    TITLE "2:cjc039_0538"
    INDEX 01 00:35:23
  TRACK 37 AUDIO
    TITLE "0:"
    INDEX 01 00:36:44
  TRACK 38 AUDIO
    TITLE "2:cjc039_0539"
    INDEX 01 00:37:26
  TRACK 39 AUDIO
    TITLE "0:"
    INDEX 01 00:38:57
  TRACK 40 AUDIO
    TITLE "2:cjc039_0540"
    INDEX 01 00:39:33
  TRACK 41 AUDIO
    TITLE "0:"
    INDEX 01 00:40:54
  TRACK 42 AUDIO
    TITLE "2:cjc039_0541"
    INDEX 01 00:41:34
  TRACK 43 AUDIO
    TITLE "0:"
    INDEX 01 00:42:33
  TRACK 44 AUDIO
    TITLE "2:cjc039_0542"
    INDEX 01 00:43:09
  TRACK 45 AUDIO
    TITLE "0:"
    INDEX 01 00:44:40
  TRACK 46 AUDIO
    TITLE "2:cjc039_0543"
    INDEX 01 00:45:16
  TRACK 47 AUDIO
    TITLE "0:"
    INDEX 01 00:46:31
  TRACK 48 AUDIO
    TITLE "2:cjc039_0544"
    INDEX 01 00:47:09
  TRACK 49 AUDIO
    TITLE "0:"
    INDEX 01 00:48:40
  TRACK 50 AUDIO
    TITLE "2:cjc039_0545"
    INDEX 01 00:49:20
  TRACK 51 AUDIO
    TITLE "0:"
    INDEX 01 00:50:48
  TRACK 52 AUDIO
    TITLE "2:cjc039_0546"
    INDEX 01 00:51:24
  TRACK 53 AUDIO
    TITLE "0:"
    INDEX 01 00:53:04
  TRACK 54 AUDIO
    TITLE "2:cjc039_0547"
    INDEX 01 00:53:57
  TRACK 55 AUDIO
    TITLE "0:"
    INDEX 01 00:55:08
  TRACK 56 AUDIO
    TITLE "2:cjc039_0548"
    INDEX 01 00:55:65
  TRACK 57 AUDIO
    TITLE "0:"
    INDEX 01 00:57:15
  TRACK 58 AUDIO
    TITLE "2:cjc039_0549"
    INDEX 01 00:57:66
  TRACK 59 AUDIO
    TITLE "0:"
    INDEX 01 00:59:12
  TRACK 60 AUDIO
    TITLE "2:cjc039_0550"
    INDEX 01 00:59:63
  TRACK 61 AUDIO
    TITLE "0:"
    INDEX 01 01:01:13
  TRACK 62 AUDIO
    TITLE "2:cjc039_0551"
    INDEX 01 01:01:64
  TRACK 63 AUDIO
    TITLE "0:"
    INDEX 01 01:03:06
  TRACK 64 AUDIO
    TITLE "2:cjc039_0552"
    INDEX 01 01:03:61
  TRACK 65 AUDIO
    TITLE "0:"
    INDEX 01 01:05:13
  TRACK 66 AUDIO
    TITLE "2:cjc039_0553"
    INDEX 01 01:05:66
  TRACK 67 AUDIO
    TITLE "0:"
    INDEX 01 01:07:39
  TRACK 68 AUDIO
    TITLE "2:cjc039_0554"
    INDEX 01 01:08:15
  TRACK 69 AUDIO
    TITLE "0:"
    INDEX 01 01:09:52
  TRACK 70 AUDIO
    TITLE "2:cjc039_0555"
    INDEX 01 01:10:30
  TRACK 71 AUDIO
    TITLE "0:"
    INDEX 01 01:11:68
  TRACK 72 AUDIO
    TITLE "2:cjc039_0556"
    INDEX 01 01:12:48
  TRACK 73 AUDIO
    TITLE "0:"
    INDEX 01 01:13:65
  TRACK 74 AUDIO
    TITLE "2:cjc039_0557"
    INDEX 01 01:14:49
  TRACK 75 AUDIO
    TITLE "0:"
    INDEX 01 01:16:03
  TRACK 76 AUDIO
    TITLE "2:cjc039_0558"
    INDEX 01 01:16:60
  TRACK 77 AUDIO
    TITLE "0:"
    INDEX 01 01:18:04
  TRACK 78 AUDIO
    TITLE "2:cjc039_0559"
    INDEX 01 01:18:54
  TRACK 79 AUDIO
    TITLE "0:"
    INDEX 01 01:20:04
  TRACK 80 AUDIO
    TITLE "2:cjc039_0560"
    INDEX 01 01:20:57
  TRACK 81 AUDIO
    TITLE "0:"
    INDEX 01 01:22:21
